<svg width="158" height="94" viewBox="0 0 158 94" fill="none" xmlns="http://www.w3.org/2000/svg">
<g clip-path="url(#clip0_735_16207)">
<path d="M97.8542 30.437L92.5235 38.4322L89.6797 35.0216C84.468 38.7842 80.3224 39.8423 80.3224 39.8423L84.2324 45.3669L74.6372 58.8867V41.0186C67.5288 41.8405 63.7402 41.4886 63.7402 41.4886V61.7093H85.6531L91.931 52.5378L98.2088 61.7093H121.545V38.9023H128.296V30.437H97.8542ZM100.46 45.3693L104.844 39.0204H110.174L110.293 59.2435L100.46 45.3693Z" fill="#70777B"/>
<path fill-rule="evenodd" clip-rule="evenodd" d="M29.3882 51.2458C29.5072 61.5911 41.9438 62.8855 46.3274 62.8855C54.8565 62.8855 64.0947 60.1811 64.0947 51.7158C64.0947 45.8369 58.7641 43.7206 53.3168 42.4286C47.8671 41.1342 42.3008 40.6642 42.0628 38.3141C42.0628 36.5521 44.7877 36.1978 46.3274 36.1978C47.5125 36.1978 48.9332 36.434 49.8804 37.0221C50.8275 37.6078 51.5391 38.3141 51.3011 39.6085H62.555C62.2005 31.7313 54.7375 29.0293 46.444 29.0293C38.5074 29.0293 30.9255 32.3195 30.9255 39.7266C30.9255 46.1936 37.7959 47.6037 43.9547 49.1319C50.5871 50.6601 52.2458 51.1301 52.2458 52.7764C52.2458 55.1289 49.2854 55.7146 47.3887 55.7146C45.1374 55.7146 42.5316 55.3627 41.7034 53.3645C41.4678 52.7764 41.2298 52.0701 41.2298 51.2482H29.3882V51.2458Z" fill="#70777B"/>
<path fill-rule="evenodd" clip-rule="evenodd" d="M63.6211 30.5552V39.8424C63.6211 39.8424 89.444 42.0768 95.9598 23.5H83.4041C83.4017 23.5 80.9149 31.1409 63.6211 30.5552Z" fill="#70777B"/>
<path d="M100.718 70.0157C100.193 70.0157 99.6808 70.0157 99.1441 70.0157C99.1344 69.7939 99.1271 69.5818 99.1174 69.3432C99.0737 69.3721 99.0421 69.3842 99.0275 69.4059C98.7143 69.859 98.2528 70.0663 97.7283 70.1459C97.2498 70.2182 96.7714 70.1965 96.3051 70.0687C96.0938 70.0109 95.8947 69.9217 95.7223 69.7819C95.4357 69.5529 95.2948 69.2564 95.2754 68.8925C95.2438 68.2947 95.5159 67.8921 96.0477 67.6415C96.3246 67.5113 96.616 67.4438 96.9171 67.398C97.5 67.3112 98.0853 67.3595 98.6705 67.345C98.7968 67.3426 98.9207 67.3402 99.0421 67.3378C99.1125 66.8894 98.9183 66.593 98.5054 66.4917C98.2626 66.4315 98.0124 66.4387 97.7696 66.4773C97.4903 66.5206 97.2863 66.6677 97.2474 66.9714C97.0847 67.0051 95.8486 67.0124 95.5936 66.981C95.5547 66.8677 95.613 66.7641 95.6446 66.6629C95.732 66.3929 95.9141 66.1904 96.1473 66.0337C96.4314 65.8433 96.752 65.7397 97.0871 65.6794C97.6457 65.5758 98.2067 65.5734 98.7701 65.6288C99.0737 65.6577 99.37 65.7059 99.6565 65.8072C100.22 66.0072 100.645 66.4074 100.679 67.2028C100.706 67.8536 100.686 68.5044 100.691 69.1552C100.694 69.3577 100.711 69.5601 100.718 69.7626C100.723 69.8421 100.718 69.9241 100.718 70.0157ZM99.0591 68.1742C99.0324 68.1597 99.0203 68.1476 99.0081 68.1476C98.571 68.1404 98.1338 68.1139 97.7016 68.1886C97.5218 68.22 97.3421 68.2658 97.1964 68.3863C96.8831 68.6418 96.9463 69.0612 97.3251 69.2058C97.3713 69.2227 97.4198 69.2347 97.466 69.2468C97.6748 69.2998 97.8861 69.2757 98.095 69.2444C98.6778 69.1624 99.0324 68.7719 99.0591 68.1742Z" fill="#70777B"/>
<path d="M115.051 67.3353C115.122 66.911 114.92 66.5953 114.544 66.4964C114.301 66.4338 114.051 66.441 113.808 66.4699C113.511 66.5061 113.29 66.6531 113.252 66.9858C112.693 66.9858 112.147 66.9858 111.583 66.9858C111.607 66.7158 111.695 66.4892 111.865 66.2892C112.091 66.0216 112.392 65.8697 112.717 65.7685C113.074 65.6576 113.443 65.6046 113.82 65.595C114.279 65.5829 114.738 65.5853 115.19 65.6793C115.408 65.7251 115.629 65.7878 115.833 65.8746C116.38 66.1084 116.637 66.5543 116.688 67.1256C116.707 67.328 116.698 67.5305 116.698 67.7354C116.7 68.1283 116.695 68.5188 116.7 68.9116C116.703 69.1551 116.717 69.401 116.724 69.6444C116.727 69.7625 116.724 69.8806 116.724 69.9987C116.562 70.0349 115.615 70.0469 115.192 70.0156C115.085 69.8131 115.18 69.5793 115.114 69.3552C115.088 69.3696 115.061 69.3793 115.049 69.3961C114.738 69.8517 114.279 70.0638 113.754 70.1458C113.278 70.2181 112.8 70.2012 112.329 70.0735C112.227 70.0445 112.127 70.0084 112.032 69.965C111.328 69.6492 111.165 68.9816 111.35 68.3717C111.418 68.1452 111.566 67.9668 111.758 67.8246C112.035 67.6197 112.355 67.516 112.688 67.4437C113.048 67.3642 113.414 67.3497 113.781 67.3497C114.14 67.3497 114.5 67.3497 114.862 67.3497C114.918 67.3449 114.981 67.3401 115.051 67.3353ZM115.066 68.1717C115.034 68.1596 115.015 68.1451 114.995 68.1451C114.573 68.1427 114.148 68.1162 113.73 68.1861C113.521 68.2223 113.315 68.2705 113.157 68.4272C112.899 68.6851 112.972 69.0587 113.31 69.1961C113.356 69.2154 113.402 69.2298 113.451 69.2395C113.762 69.3045 114.068 69.2732 114.364 69.1696C114.818 69.0153 115.063 68.6658 115.066 68.1717Z" fill="#70777B"/>
<path d="M79.8709 68.2702C78.5352 68.2702 77.2408 68.2702 75.9391 68.2702C75.9051 68.4799 75.9731 68.6486 76.0508 68.8077C76.1431 68.9957 76.2937 69.1307 76.4904 69.2127C76.7503 69.3211 77.0198 69.3452 77.2967 69.3115C77.3792 69.3019 77.4618 69.2802 77.542 69.2561C77.7435 69.1982 77.8868 69.0705 77.9645 68.8752C77.9791 68.8367 77.9985 68.7981 78.018 68.7523C78.579 68.7523 79.14 68.7523 79.718 68.7523C79.7131 68.7981 79.7155 68.8391 79.7034 68.8752C79.497 69.5308 79.0355 69.9117 78.375 70.0635C78.1442 70.1166 77.9038 70.1359 77.6658 70.1575C77.287 70.1913 76.9057 70.1961 76.5268 70.1575C76.131 70.119 75.7473 70.0418 75.3878 69.8755C74.7443 69.5766 74.3727 69.0801 74.2707 68.3811C74.2051 67.9376 74.227 67.5013 74.38 67.0795C74.6107 66.4431 75.0794 66.0454 75.7011 65.8092C76.0727 65.6694 76.4588 65.6043 76.8571 65.5923C77.287 65.5802 77.7144 65.6116 78.1345 65.7152C79.0307 65.9394 79.5698 66.5082 79.7568 67.4001C79.8151 67.6724 79.8321 67.9545 79.8709 68.2702ZM78.0932 67.3904C78.103 67.3615 78.1078 67.3543 78.1078 67.347C78.103 67.3061 78.0981 67.2651 78.0932 67.2241C78.0495 66.8698 77.8577 66.636 77.5177 66.5203C77.2651 66.4359 77.0028 66.4311 76.7454 66.4769C76.3933 66.5396 76.1504 66.7493 76.029 67.0867C75.995 67.1807 75.9391 67.2747 75.9731 67.3904C76.6847 67.3904 77.3865 67.3904 78.0932 67.3904Z" fill="#70777B"/>
<path d="M86.5835 70.0179C86.0347 70.0179 85.5077 70.0179 84.9588 70.0179C84.9564 69.9407 84.9515 69.8684 84.9515 69.7937C84.9515 69.1357 84.9491 68.4776 84.9515 67.822C84.9515 67.6388 84.9272 67.4605 84.8665 67.2869C84.733 66.9109 84.427 66.6988 84.0238 66.665C83.1058 66.5855 82.6201 67.311 82.608 67.9618C82.5958 68.562 82.6031 69.1646 82.6007 69.7672C82.6007 69.8443 82.6007 69.9191 82.6007 69.9938C82.4453 70.0396 81.3208 70.0516 80.976 70.0131C80.9735 69.9359 80.9687 69.854 80.9687 69.772C80.9687 68.7018 80.9711 67.6316 80.9663 66.5614C80.9663 66.3517 80.9468 66.142 80.9371 65.9347C80.9347 65.8865 80.9371 65.8383 80.9371 65.766C81.4617 65.7539 81.979 65.7587 82.5133 65.7636C82.523 66.0191 82.5303 66.2529 82.54 66.5373C82.6128 66.465 82.6565 66.4264 82.6954 66.383C83.0135 66.0287 83.3924 65.7756 83.8635 65.6671C84.4512 65.5322 85.0292 65.578 85.5781 65.819C86.1561 66.0721 86.4524 66.5469 86.5422 67.1519C86.5738 67.3713 86.5811 67.5979 86.5835 67.8196C86.5884 68.4704 86.5859 69.1212 86.5859 69.772C86.5835 69.8419 86.5835 69.9191 86.5835 70.0179Z" fill="#70777B"/>
<path d="M110.532 67.2484C109.968 67.2484 109.424 67.2484 108.87 67.2484C108.846 67.1833 108.824 67.1182 108.8 67.0555C108.7 66.7759 108.504 66.6072 108.212 66.5373C107.986 66.4843 107.765 66.4843 107.544 66.5469C107.141 66.6626 106.906 66.9447 106.787 67.3279C106.66 67.7353 106.677 68.1402 106.818 68.5427C107.076 69.2803 107.882 69.4225 108.438 69.1453C108.645 69.0417 108.771 68.8681 108.827 68.6464C108.841 68.5861 108.856 68.5259 108.873 68.456C109.444 68.456 110.005 68.456 110.583 68.456C110.539 68.8344 110.398 69.1574 110.141 69.4298C109.847 69.7407 109.473 69.9142 109.067 70.0275C108.747 70.1167 108.419 70.1481 108.088 70.1722C107.654 70.2059 107.231 70.1649 106.811 70.0709C106.486 69.9962 106.182 69.8709 105.903 69.6877C105.446 69.3888 105.152 68.9742 105.036 68.4439C104.941 68.0197 104.956 67.5955 105.079 67.1785C105.274 66.5277 105.723 66.1107 106.342 65.8576C106.758 65.6889 107.195 65.6165 107.639 65.5973C108.156 65.5756 108.669 65.6093 109.164 65.7636C109.325 65.8142 109.485 65.8745 109.633 65.9516C110.148 66.224 110.461 66.6458 110.532 67.2484Z" fill="#70777B"/>
<path d="M91.5303 69.0176C91.5303 69.3599 91.5303 69.6805 91.5303 70.0107C91.3263 70.083 91.115 70.0951 90.9086 70.1071C90.6342 70.124 90.3598 70.1168 90.0853 70.112C89.8449 70.1071 89.6118 70.0517 89.3859 69.9697C88.8492 69.7697 88.5335 69.3744 88.5141 68.7332C88.4971 68.1596 88.5092 67.5859 88.5092 67.0122C88.5092 66.9375 88.5043 66.8628 88.4995 66.7639C88.1473 66.7639 87.8122 66.7639 87.4819 66.7639C87.4406 66.588 87.4333 66.0384 87.4673 65.7612C87.8025 65.7395 88.1449 65.766 88.5068 65.7443C88.5068 65.4406 88.5068 65.1562 88.5068 64.867C89.0532 64.6693 89.5802 64.4789 90.1242 64.2812C90.1582 64.4524 90.1363 64.6115 90.1412 64.7681C90.146 64.9224 90.1412 65.0767 90.1412 65.2309C90.1412 65.3924 90.1412 65.5515 90.1412 65.7154C90.3015 65.7829 90.4569 65.7443 90.6075 65.7516C90.7556 65.7588 90.9038 65.754 91.0519 65.754C91.2049 65.754 91.3603 65.754 91.5255 65.754C91.5255 66.0914 91.5255 66.4096 91.5255 66.7398C91.2948 66.776 91.064 66.7495 90.8333 66.7567C90.6099 66.7639 90.3865 66.7471 90.1582 66.7664C90.1509 66.8194 90.1412 66.8507 90.1412 66.8845C90.1412 67.381 90.1388 67.8775 90.1436 68.3741C90.1436 68.4705 90.1655 68.5693 90.1898 68.6633C90.2383 68.8369 90.35 68.9646 90.5298 69.0056C90.6779 69.0393 90.8358 69.061 90.9888 69.061C91.1612 69.0634 91.336 69.0345 91.5303 69.0176Z" fill="#70777B"/>
<path d="M118.101 65.7659C118.599 65.7659 119.109 65.7659 119.641 65.7659C119.66 66.0527 119.68 66.3348 119.701 66.665C119.76 66.5782 119.796 66.53 119.823 66.4794C120.092 65.9732 120.53 65.7394 121.093 65.7129C121.268 65.7032 121.44 65.6888 121.627 65.6743C121.627 66.1395 121.627 66.583 121.627 67.0362C121.52 67.0362 121.423 67.041 121.326 67.0362C121.093 67.0241 120.862 67.0434 120.639 67.1133C120.1 67.2796 119.755 67.7111 119.738 68.3233C119.723 68.8054 119.735 69.2899 119.735 69.772C119.735 69.8491 119.735 69.9238 119.735 69.9961C119.568 70.0347 118.373 70.0419 118.103 70.0058C118.101 68.6005 118.101 67.188 118.101 65.7659Z" fill="#70777B"/>
<path d="M71.5919 65.7683C71.6866 66.0576 71.6065 66.354 71.6672 66.6794C71.7231 66.5903 71.7619 66.5348 71.7935 66.477C72.0631 65.9828 72.4905 65.7466 73.0466 65.7153C73.2215 65.7057 73.3939 65.6888 73.5906 65.6743C73.6101 66.1371 73.6052 66.5806 73.5955 67.0314C73.4765 67.0314 73.3721 67.0338 73.2676 67.0314C72.9762 67.0241 72.6921 67.0555 72.4249 67.1832C72.0266 67.3736 71.7959 67.6918 71.7304 68.1209C71.7061 68.2775 71.6988 68.439 71.6964 68.6005C71.6915 68.9982 71.6939 69.3984 71.6939 69.7961C71.6939 69.8636 71.6939 69.9335 71.6939 70.0154C71.1548 70.0154 70.6375 70.0154 70.0935 70.0154C70.0911 69.9383 70.0838 69.8563 70.0838 69.7768C70.0838 68.6993 70.0862 67.6219 70.0814 66.5445C70.0814 66.2938 70.0595 66.0431 70.0474 65.7972C70.2028 65.7442 71.1159 65.7298 71.5919 65.7683Z" fill="#70777B"/>
</g>
<defs>
<clipPath id="clip0_735_16207">
<rect width="98.908" height="46.6867" fill="white" transform="translate(29.3882 23.5)"/>
</clipPath>
</defs>
</svg>
