<svg width="158" height="94" viewBox="0 0 158 94" fill="none" xmlns="http://www.w3.org/2000/svg">
<g clip-path="url(#clip0_735_16208)">
<path fill-rule="evenodd" clip-rule="evenodd" d="M130.496 33.7324C127.329 33.7324 125.55 35.3153 124.679 37.1691H124.6V34.1959H120.089V35.2697C121.367 37.5236 122.09 40.1296 122.09 42.9306C122.09 45.7316 121.367 48.3376 120.089 50.5915V52.7265H124.837V42.6115C124.837 40.1397 126.062 37.901 129.187 37.901C132.512 37.901 132.67 41.2971 132.67 43.3434V52.7265H137.419V41.0287C137.419 37.2451 135.599 33.7324 130.496 33.7324ZM20.5811 34.1959H25.0866V37.0931H25.1658C25.9964 35.3558 27.8135 33.7324 30.9748 33.7324C33.8984 33.7324 35.9148 34.8518 36.9038 37.1691C38.2864 34.8138 40.3028 33.7324 43.1497 33.7324C48.2098 33.7324 49.9885 37.2451 49.9885 41.6846V52.7239H45.2453V42.2266C45.2453 39.9118 44.5323 37.9035 41.7288 37.9035C38.7643 37.9035 37.6577 40.2968 37.6577 42.69V52.7265H32.9145V41.6871C32.9145 39.4078 31.9663 37.9035 29.6714 37.9035C26.5484 37.9035 25.3243 40.1423 25.3243 42.614V52.7265H20.5811V34.1959ZM64.9006 50.2269H64.783C63.4439 52.3187 61.2384 53.2482 58.7185 53.2482C55.2122 53.2482 51.826 51.3513 51.826 47.6715C51.826 41.6314 58.9945 41.2059 63.7199 41.2059H64.9006V40.702C64.9006 38.4176 63.0886 37.2172 60.5688 37.2172C58.601 37.2172 56.789 37.9922 55.5266 39.1521L53.0451 36.7132C55.133 34.6213 58.0847 33.7324 61.0799 33.7324C69.1531 33.7324 69.1531 39.4636 69.1531 42.0949V52.7797H64.9006C64.9006 52.7822 64.9006 50.2269 64.9006 50.2269ZM64.6246 44.4577H63.6407C61.0416 44.4577 56.5514 44.6527 56.5514 47.3246C56.5514 49.029 58.3224 49.7634 59.8609 49.7634C63.0912 49.7634 64.6271 48.0995 64.6271 45.5037V44.4577H64.6246ZM89.4447 43.0319C89.4447 41.0844 89.7897 39.228 90.4261 37.516C88.8211 35.1988 86.1786 33.735 82.7311 33.735C80.0579 33.735 77.5432 34.7505 76.1453 37.0121H76.0661V34.2009H71.5171V61.8335H76.3063V50.5536H76.4264C77.4231 51.7641 79.3398 53.4027 82.9305 53.4027C86.3345 53.4027 89.0895 51.7388 90.6816 49.1429C89.8638 47.2081 89.4422 45.1314 89.4447 43.0319ZM81.7753 49.1885C78.2639 49.1885 76.1478 46.4964 76.1478 43.5688C76.1478 40.6412 78.2639 37.9491 81.7753 37.9491C85.2867 37.9491 87.4028 40.6437 87.4028 43.5688C87.4002 46.4964 85.2867 49.1885 81.7753 49.1885Z" fill="#70777B"/>
<mask id="mask0_735_16208" style="mask-type:alpha" maskUnits="userSpaceOnUse" x="89" y="28" width="32" height="38">
<path fill-rule="evenodd" clip-rule="evenodd" d="M89.6445 65.3915H120.082V28.6089H89.6445C89.6445 28.6089 89.6445 65.3915 89.6445 65.3915Z" fill="white"/>
</mask>
<g mask="url(#mask0_735_16208)">
<path fill-rule="evenodd" clip-rule="evenodd" d="M114.401 42.8419C114.401 47.5955 110.493 51.4474 105.676 51.4474C100.859 51.4474 96.9536 47.5955 96.9536 42.8419C96.9536 38.0883 100.861 34.2363 105.676 34.2363C110.496 34.2363 114.401 38.0883 114.401 42.8419ZM89.6445 65.3916L99.9769 55.8997C106.599 58.7133 114.452 56.2517 118.147 49.9406C122.126 43.1382 119.765 34.4414 112.873 30.516C105.977 26.5906 97.1606 28.9205 93.1815 35.7229C89.9257 41.2869 90.9147 48.1172 95.1519 52.5668L89.6445 65.3916Z" fill="#70777B"/>
</g>
</g>
<defs>
<clipPath id="clip0_735_16208">
<rect width="116.838" height="36.7826" fill="white" transform="translate(20.5811 28.6089)"/>
</clipPath>
</defs>
</svg>
