<svg width="158" height="94" viewBox="0 0 158 94" fill="none" xmlns="http://www.w3.org/2000/svg">
<g clip-path="url(#clip0_735_16209)">
<path fill-rule="evenodd" clip-rule="evenodd" d="M40.6792 34.7805H43.9216L47.5165 40.5656L51.1114 34.7805H54.3538V48.4599H51.3638V39.5282L47.513 45.372H47.4335L43.6277 39.587V48.4599H40.6792V34.7805ZM68.419 41.6583V41.6202C68.419 39.2758 66.701 37.3186 64.2779 37.3186C61.8548 37.3186 60.1748 39.2343 60.1748 41.5787V41.6168C60.1748 43.9612 61.8928 45.9149 64.3159 45.9149C66.739 45.9149 68.419 44.0027 68.419 41.6583ZM57.0293 41.6583V41.6202C57.0293 37.7301 60.0953 34.5454 64.3159 34.5454C68.5365 34.5454 71.5646 37.6921 71.5646 41.5822V41.6202C71.5646 45.5103 68.4985 48.695 64.2779 48.695C60.0573 48.695 57.0293 45.5484 57.0293 41.6583ZM74.24 34.7805H77.0157L83.4244 43.2039V34.7805H86.3937V48.4599H83.8357L77.2128 39.7633V48.4599H74.2435V34.7805H74.24ZM92.8577 37.5538H88.6958V34.7771H100.027V37.5538H95.865V48.4599H92.8577V37.5538ZM101.275 34.7805H104.496L107.331 44.0442L110.397 34.7425H112.975L116.042 44.0442L118.876 34.7805H122.022L117.352 48.5602H114.735L111.648 39.6077L108.561 48.5602H105.941L101.275 34.7805ZM130.152 42.7337L128.333 38.2972L126.519 42.7337H130.152ZM126.985 34.6803H129.761L135.624 48.4599H132.478L131.23 45.3928H125.447L124.199 48.4599H121.133L126.985 34.6803Z" fill="#70777B"/>
<mask id="mask0_735_16209" style="mask-type:alpha" maskUnits="userSpaceOnUse" x="134" y="34" width="14" height="15">
<path fill-rule="evenodd" clip-rule="evenodd" d="M147.888 48.4591V34.7798H134.369V48.4591H147.888Z" fill="white"/>
</mask>
<g mask="url(#mask0_735_16209)">
<path fill-rule="evenodd" clip-rule="evenodd" d="M139.623 43.0649L134.369 34.7798H137.884L141.147 40.2709L144.469 34.7798H147.888L142.634 43.0095V48.4626H139.626L139.623 43.0649Z" fill="#70777B"/>
</g>
<path fill-rule="evenodd" clip-rule="evenodd" d="M45.8745 56.209L44.1357 52.3016L42.3867 56.209H45.8745ZM43.7417 51.2953H44.5505L48.0418 59.0098H47.1119L46.2167 56.9835H42.0479L41.1388 59.0098H40.2539C40.2539 59.0133 43.7417 51.2953 43.7417 51.2953ZM49.4314 55.8044V51.3506H50.2955V55.7491C50.2955 57.4019 51.1701 58.3321 52.6357 58.3321C54.046 58.3321 54.9448 57.478 54.9448 55.8044V51.3506H55.8089V55.7387C55.8089 57.9725 54.53 59.1309 52.615 59.1309C50.7207 59.1343 49.4314 57.9725 49.4314 55.8044ZM59.8774 52.1494H57.3057V51.3506H63.3237V52.1494H60.752V59.0133H59.8774V52.1494ZM71.5195 55.2027V55.182C71.5195 53.4427 70.2509 52.0215 68.5018 52.0215C66.7527 52.0215 65.5049 53.4219 65.5049 55.1612V55.182C65.5049 56.9213 66.7735 58.3459 68.5226 58.3459C70.2716 58.3459 71.5195 56.942 71.5195 55.2027ZM64.6061 55.2027V55.182C64.6061 53.0692 66.1928 51.2192 68.5226 51.2192C70.8524 51.2192 72.4182 53.0485 72.4182 55.1578C72.4286 55.1681 72.4286 55.1681 72.4182 55.1785C72.4182 57.2913 70.8316 59.1412 68.5018 59.1412C66.1686 59.1447 64.6061 57.3155 64.6061 55.2027ZM79.5493 52.1494H76.9776V51.3506H82.9956V52.1494H80.4239V59.0133H79.5493V52.1494ZM87.8281 55.258C88.9757 55.258 89.7984 54.6667 89.7984 53.6812V53.6605C89.7984 52.72 89.0759 52.1494 87.8384 52.1494H85.4741V55.258H87.8281ZM84.6134 51.3506H87.9076C88.8478 51.3506 89.6048 51.6342 90.0853 52.1148C90.4586 52.4883 90.6764 53.0242 90.6764 53.6259V53.6467C90.6764 54.9157 89.8018 55.6592 88.5989 55.8805L90.9494 59.0098H89.8882L87.6656 56.0326H85.4775V59.0098H84.6134V51.3506ZM97.4895 56.209L95.7473 52.3016L93.9982 56.209H97.4895ZM95.3567 51.2953H96.1656L99.6533 59.0098H98.7235L97.8248 56.9835H93.6595L92.7504 59.0098H91.862L95.3567 51.2953ZM101.164 51.3506H101.973L106.798 57.4918V51.3506H107.642V59.0133H106.954L102.007 52.7303V59.0133H101.164V51.3506ZM109.304 57.8964L109.84 57.2601C110.639 57.9828 111.403 58.3425 112.467 58.3425C113.494 58.3425 114.175 57.7961 114.175 57.0388V57.0181C114.175 56.3058 113.791 55.9012 112.184 55.5623C110.421 55.1785 109.612 54.6114 109.612 53.3527V53.332C109.612 52.1287 110.673 51.2434 112.128 51.2434C113.245 51.2434 114.043 51.5616 114.821 52.184L114.317 52.8514C113.604 52.2704 112.896 52.018 112.108 52.018C111.112 52.018 110.476 52.5644 110.476 53.2559V53.2767C110.476 53.9994 110.87 54.4039 112.554 54.7636C114.261 55.137 115.049 55.7594 115.049 56.9316V56.9524C115.049 58.2664 113.954 59.1205 112.433 59.1205C111.219 59.1205 110.224 58.7159 109.304 57.8964ZM119.567 55.5208C120.836 55.5208 121.669 54.8431 121.669 53.8369V53.8161C121.669 52.72 120.85 52.1529 119.612 52.1529H117.676V55.5243L119.567 55.5208ZM116.809 51.3506H119.674C121.403 51.3506 122.54 52.2704 122.54 53.7815V53.8023C122.54 55.4551 121.161 56.3092 119.533 56.3092H117.673V59.0133H116.809V51.3506ZM130.691 55.2027V55.182C130.691 53.4427 129.422 52.0215 127.673 52.0215C125.924 52.0215 124.676 53.4219 124.676 55.1612V55.182C124.676 56.9213 125.945 58.3459 127.697 58.3459C129.443 58.3425 130.691 56.942 130.691 55.2027ZM123.777 55.2027V55.182C123.777 53.0692 125.364 51.2192 127.694 51.2192C130.024 51.2192 131.59 53.0485 131.59 55.1578C131.6 55.1681 131.6 55.1681 131.59 55.1785C131.59 57.2913 130.003 59.1412 127.673 59.1412C125.343 59.1447 123.777 57.3155 123.777 55.2027ZM136.633 55.258C137.78 55.258 138.603 54.6667 138.603 53.6812V53.6605C138.603 52.72 137.881 52.1494 136.643 52.1494H134.282V55.258H136.633ZM133.415 51.3506H136.709C137.649 51.3506 138.406 51.6342 138.887 52.1148C139.26 52.4883 139.478 53.0242 139.478 53.6259V53.6467C139.478 54.9157 138.603 55.6592 137.4 55.8805L139.751 59.0098H138.69L136.47 56.0326H134.282V59.0098H133.418V51.3506H133.415ZM143.349 52.1494H140.777V51.3506H146.795V52.1494H144.224V59.0133H143.349V52.1494Z" fill="#70777B"/>
<path fill-rule="evenodd" clip-rule="evenodd" d="M12.4358 39.4296C14.783 36.0522 18.6885 33.8398 23.1124 33.8398C30.2884 33.8398 36.1129 39.6594 36.1129 46.8415C36.1129 54.0235 30.2919 59.8465 23.1124 59.8465C15.9329 59.8465 10.1118 54.0235 10.1118 46.8415C10.1118 46.4473 10.1326 46.0531 10.1671 45.6589L10.1674 45.6589H10.1743L10.1743 45.6589H10.1844L10.1775 45.6519C10.2466 44.8843 10.3849 44.1236 10.5888 43.3801C10.8827 43.062 11.2007 42.7715 11.5394 42.5053C13.6618 40.842 16.1195 39.8635 18.6844 39.1304C20.5178 38.6054 22.3926 38.3288 24.4191 38.2868C24.3297 38.3868 24.2556 38.4703 24.1898 38.5443C24.1055 38.6392 24.0347 38.7188 23.9629 38.7984C23.1649 39.6719 22.3639 40.5425 21.563 41.413C19.5991 43.5476 17.6354 45.6819 15.7153 47.8581C14.7094 48.9992 13.8211 50.2405 13.0606 51.558C12.4324 52.6452 13.0744 53.8952 14.1177 54.2389C14.2256 54.2752 14.3378 54.3017 14.4534 54.3174C14.5446 54.0916 14.6197 53.8654 14.6926 53.6458C14.8463 53.1827 14.9904 52.7487 15.2553 52.4086C16.0711 51.3678 16.9353 50.3304 17.9377 49.4798C21.4462 46.4991 25.1656 43.7985 29.1131 41.423C29.2054 41.365 29.3071 41.3217 29.4462 41.2624C29.5259 41.2284 29.618 41.1892 29.7276 41.139C29.3032 41.6665 28.8846 42.1757 28.4738 42.6753C27.5659 43.7795 26.697 44.8364 25.8918 45.9389C24.5886 47.7198 23.3718 49.5697 22.1828 51.4301C21.7438 52.1147 21.9581 52.8201 22.5595 53.2593C22.7572 53.4029 22.9568 53.4851 23.1422 53.4621C23.3047 53.4455 23.4571 53.3494 23.5894 53.1452C24.5309 51.6828 25.8533 50.6181 27.1754 49.5536C27.5571 49.2463 27.9387 48.9391 28.3112 48.6223C28.9242 48.1013 29.5556 47.6018 30.187 47.1023C30.4965 46.8575 30.806 46.6127 31.1134 46.3653C31.0268 46.6257 30.884 46.8298 30.7459 47.0274C30.6775 47.1252 30.6102 47.2214 30.5514 47.3221C30.3698 47.635 30.1854 47.9468 30.001 48.2587C29.3884 49.2946 28.775 50.3319 28.2596 51.4162C27.8344 52.3084 27.9485 53.3042 28.5499 54.1549C28.8241 54.5418 29.2022 54.7695 29.5924 54.8099C29.9242 54.8467 30.2661 54.748 30.5615 54.4972C29.6005 54.4349 29.6835 53.7849 29.7941 53.1936C29.9116 52.5746 30.0672 51.9418 30.3195 51.3644C31.2183 49.2965 32.7012 47.6506 34.2947 46.1015C34.8339 45.5759 34.6922 45.0987 34.312 44.6042C33.9951 44.1938 33.6782 43.9866 33.3476 43.9885C33.1491 43.9875 32.9452 44.062 32.7325 44.2135C31.7716 44.9016 30.8279 45.607 29.898 46.3331C29.0322 47.0105 28.1773 47.7006 27.3214 48.3916C27.0073 48.6452 26.6931 48.8989 26.3781 49.1521C26.6332 48.6112 26.9661 48.1416 27.3364 47.7094C28.2171 46.6795 29.1027 45.6558 29.9881 44.6324C30.5831 43.9446 31.1781 43.2569 31.7713 42.5675C32.5491 41.6685 32.6424 41.0875 32.1412 40.3994C31.8812 40.0422 31.5814 39.8106 31.2399 39.706C30.8255 39.576 30.3494 39.6345 29.8082 39.8842C29.7873 39.8937 29.7663 39.9033 29.7454 39.9128C29.4093 40.066 29.0669 40.222 28.7643 40.4271C26.4172 42.0004 24.0805 43.5841 21.7472 45.1782C21.3068 45.4805 20.8824 45.8034 20.4576 46.1265C20.2598 46.277 20.0619 46.4275 19.8624 46.576C20.0282 46.209 20.2689 45.9306 20.5233 45.6727C21.1279 45.0579 21.7342 44.4446 22.3406 43.8312C23.6204 42.5366 24.9004 41.2418 26.1646 39.9326C27.0564 39.0094 26.8145 37.972 25.5977 37.5156C25.0585 37.315 24.4432 37.194 23.8728 37.2251C23.7563 37.2311 23.6396 37.2371 23.523 37.2431C21.8993 37.3261 20.2664 37.4096 18.6636 37.6677C16.9346 37.943 15.2325 38.3413 13.6075 38.9488C13.2121 39.0962 12.8213 39.2561 12.4358 39.4296Z" fill="#70777B"/>
</g>
<defs>
<clipPath id="clip0_735_16209">
<rect width="137.776" height="26.0067" fill="white" transform="translate(10.1118 33.8398)"/>
</clipPath>
</defs>
</svg>
