<svg width="158" height="94" viewBox="0 0 158 94" fill="none" xmlns="http://www.w3.org/2000/svg">
<g clip-path="url(#clip0_735_16210)">
<path d="M38.4474 35.924C38.4628 33.9462 40.0974 32.3524 42.103 32.3651C44.1214 32.3651 45.7535 33.9639 45.7535 35.924C45.7381 37.9017 44.106 39.493 42.103 39.4829C40.0974 39.4955 38.4602 37.9017 38.4474 35.924ZM47.9202 31.2663C45.1318 28.0206 40.2228 27.5837 36.8921 30.2838C36.1605 30.8395 35.5619 31.5518 35.1423 32.3651L29.7114 43.9031C29.4198 44.5674 29.54 45.3352 30.021 45.8808C30.4865 46.4239 31.2642 46.6992 31.9779 46.5199L44.5895 43.3196C45.4797 43.062 46.3035 42.6099 46.9967 42.0011C50.2455 39.3515 50.706 34.603 48.0225 31.3926C47.9867 31.3497 47.9509 31.3067 47.9125 31.2663H47.9202Z" fill="#70777B"/>
<path d="M27.8848 47.977C29.6602 50.129 33.9272 48.6565 33.9272 48.6565C33.4565 51.3263 31.1234 53.2838 28.3786 53.3141C25.2576 53.3141 22.7251 50.7327 22.7251 47.5224C22.7251 44.3676 25.1732 41.8064 28.2328 41.7256C28.2328 41.7256 25.8051 45.4562 27.8848 47.977Z" fill="#70777B"/>
<path d="M28.1866 56.232C32.8731 56.232 36.677 52.5316 36.9354 47.8841L39.6649 47.1693V47.3839C39.6649 53.7895 34.5384 58.9775 28.1917 58.9775C21.8603 58.9775 16.7134 53.7895 16.7134 47.3839C16.7134 40.9784 21.8399 35.7954 28.1917 35.7954C29.1075 35.7954 30.0029 35.8964 30.8573 36.1162L29.6985 38.6572C29.2073 38.5764 28.6982 38.5334 28.1917 38.5334C23.3466 38.5334 19.4224 42.499 19.4224 47.3814C19.4224 52.2689 23.3466 56.2294 28.1917 56.2294L28.1866 56.232Z" fill="#70777B"/>
<path d="M45.4056 47.3837C45.4056 57.2042 37.5726 65.1732 27.9079 65.1732C18.2433 65.1732 10.4282 57.2016 10.4282 47.3837C10.4282 37.5658 18.2612 29.5942 27.9054 29.5942C29.7165 29.5942 31.4663 29.8746 33.0933 30.4025L31.8296 33.2037C30.5556 32.8374 29.233 32.6556 27.9054 32.6606C19.901 32.6556 13.4212 39.2505 13.4212 47.4039C13.4212 55.5573 19.9087 62.1472 27.9079 62.1472C35.9021 62.1472 42.3946 55.5523 42.3946 47.4039C42.3946 47.0604 42.3742 46.7396 42.3537 46.3961L45.3058 45.608C45.3825 46.1915 45.4056 46.78 45.4056 47.3837Z" fill="#70777B"/>
<path d="M68.268 43.1756C68.268 43.9485 68.1324 44.6684 67.8638 45.3327C67.3368 46.6512 66.2855 47.6969 64.9552 48.2248C64.262 48.5001 63.4945 48.639 62.6504 48.639C61.8113 48.639 61.0464 48.5001 60.3506 48.2197C59.0152 47.6918 57.9562 46.6461 57.4266 45.3276C57.158 44.6633 57.0225 43.9485 57.0225 43.1756C57.0225 42.4027 57.158 41.6828 57.4266 41.0186C57.9562 39.7001 59.0152 38.6569 60.3506 38.1366C61.0438 37.8562 61.8113 37.7173 62.6504 37.7173C63.4945 37.7173 64.2594 37.8613 64.9501 38.1416C66.2803 38.6695 67.3317 39.7152 67.8587 41.0287C68.1324 41.693 68.268 42.4103 68.268 43.1756ZM65.6996 43.1756C65.6996 42.6502 65.628 42.1678 65.4924 41.7435C65.3696 41.3494 65.165 40.9832 64.8913 40.67C64.6303 40.377 64.3055 40.1446 63.9396 39.9956C63.5303 39.8314 63.0929 39.7531 62.6504 39.7607C62.1694 39.7607 61.7345 39.8415 61.3559 39.9956C60.9773 40.1547 60.6576 40.3795 60.3992 40.67C60.1408 40.9655 59.9387 41.3242 59.8031 41.7435C59.6625 42.1678 59.5959 42.6477 59.5959 43.1756C59.5959 43.706 59.6625 44.1885 59.8031 44.6078C59.9387 45.0321 60.1408 45.3908 60.3992 45.6812C60.6601 45.9768 60.9876 46.2091 61.3559 46.3556C61.7345 46.5097 62.1694 46.5855 62.6504 46.5855C63.1313 46.5855 63.561 46.5097 63.9396 46.3556C64.3131 46.2016 64.6329 45.9768 64.8913 45.6863C65.1496 45.3908 65.3517 45.0321 65.4873 44.6128C65.628 44.1885 65.6945 43.7086 65.6945 43.1756H65.6996ZM70.7929 37.8335C70.8952 37.8335 70.9899 37.8335 71.0666 37.8486C71.1382 37.8587 71.2073 37.8739 71.2687 37.8991C71.325 37.9295 71.3838 37.9648 71.4401 38.0179C71.4913 38.0684 71.5552 38.1315 71.6217 38.2174L76.7636 44.6381C76.7278 44.2567 76.7098 43.8753 76.7073 43.4939V37.8335H78.9175V48.5228H77.6129C77.4159 48.5228 77.2496 48.4976 77.1217 48.4369C76.9861 48.3814 76.8633 48.2728 76.7329 48.1162L71.6345 41.746C71.6601 42.0946 71.678 42.4431 71.6857 42.7942V48.5253H69.4703V37.8335H70.7929ZM91.4242 37.8335V39.8011H88.38V48.5228H85.868V39.8036H82.8238V37.8335H91.4242ZM101.913 48.5228H99.3851V44.0041H94.9851V48.5228H92.4628V37.8335H94.9903V42.3017H99.3851V37.8335H101.913V48.5228ZM110.661 37.8335V39.7405H106.22V42.236H109.623V44.0723H106.22V46.6183H110.661V48.5253H103.693V37.8335H110.661Z" fill="#70777B"/>
<path d="M120.173 43.7794C120.38 44.176 120.564 44.5827 120.723 45.0019C120.884 44.5776 121.068 44.1634 121.278 43.7592L124.043 38.2479C124.094 38.1569 124.145 38.0786 124.199 38.0281C124.25 37.9776 124.301 37.9372 124.371 37.9094C124.432 37.8841 124.506 37.869 124.588 37.8639C124.683 37.8589 124.777 37.8589 124.872 37.8589H126.778V48.768H124.578V42.4913C124.578 42.1856 124.593 41.8573 124.619 41.5037L121.771 47.111C121.679 47.2853 121.564 47.4166 121.408 47.5101C121.257 47.596 121.088 47.644 120.897 47.644H120.554C120.362 47.644 120.191 47.5985 120.042 47.5101C119.886 47.4141 119.758 47.2752 119.679 47.111L116.821 41.4986C116.857 41.827 116.878 42.1579 116.878 42.4913V48.768H114.678V37.8614H116.584L116.867 37.8665C116.949 37.8715 117.024 37.8867 117.085 37.917C117.151 37.9372 117.21 37.9776 117.261 38.0306C117.313 38.0812 117.364 38.1595 117.418 38.2504L120.173 43.7794Z" fill="#70777B"/>
<path d="M138.565 48.768H136.629C136.411 48.768 136.235 48.7175 136.097 48.6139C135.959 48.5103 135.859 48.379 135.803 48.2199L135.166 46.3179H131.075L130.438 48.2199C130.313 48.5533 129.985 48.773 129.625 48.768H127.673L131.84 37.8589H134.398L138.565 48.768ZM131.651 44.5978H134.59L133.6 41.6123L133.372 40.9429C133.29 40.6878 133.201 40.4075 133.119 40.1044C132.986 40.6196 132.825 41.1273 132.638 41.6274L131.651 44.5978Z" fill="#70777B"/>
<path d="M141.938 45.1181V48.7679H139.443V37.8613H143.242C143.997 37.8613 144.649 37.9523 145.194 38.1316C145.69 38.2882 146.151 38.5458 146.54 38.8893C146.885 39.2 147.151 39.5839 147.317 40.0133C147.663 40.9504 147.66 41.981 147.312 42.9181C147.148 43.3651 146.877 43.7693 146.524 44.0926C146.133 44.4361 145.672 44.6937 145.174 44.8503C144.631 45.0347 143.984 45.1206 143.242 45.1206H141.938V45.1181ZM141.938 43.2111H143.242C143.889 43.2111 144.36 43.057 144.644 42.7412C144.928 42.4255 145.074 41.9835 145.074 41.4228C145.074 41.1727 145.038 40.9479 144.959 40.7433C144.813 40.3291 144.478 40.0058 144.053 39.8744C143.792 39.7885 143.516 39.7481 143.24 39.7507H141.935L141.938 43.2111Z" fill="#70777B"/>
<path d="M57.9024 58.3282H57.4727V52.5011H57.9024V58.3282ZM60.0154 52.5011C60.0564 52.5011 60.0871 52.5011 60.1075 52.5163C60.128 52.5264 60.1536 52.5466 60.1792 52.5769L63.9882 57.626C63.9805 57.5452 63.978 57.4669 63.978 57.3861V52.4986H64.3515V58.3257H64.1443C64.0829 58.3257 64.024 58.2954 63.9882 58.2449L60.1613 53.1831L60.1766 53.418V58.3257H59.8031V52.4986L60.0154 52.5011ZM69.9487 52.5011V52.8598H67.8766V58.3282H67.4519V52.8598H65.3696V52.5011H69.9487ZM74.4945 52.5011V52.8497H71.394V55.2063H73.9777V55.5498H71.394V57.9771H74.4996V58.3307H70.9694V52.5036H74.4945V52.5011ZM76.4361 55.6887V58.3257H76.0114V52.4986H77.5131C78.1961 52.4986 78.7026 52.6274 79.0403 52.8876C79.3728 53.1427 79.5417 53.5266 79.5417 54.0318C79.5417 54.2515 79.5007 54.4561 79.4214 54.6405C79.3447 54.8223 79.2321 54.984 79.0889 55.1204C78.9379 55.2644 78.7691 55.3755 78.5619 55.4639C78.3547 55.5548 78.1219 55.618 77.8686 55.6432C77.93 55.6837 77.994 55.7342 78.0452 55.8074L80.0738 58.3282H79.7003C79.6619 58.3282 79.621 58.3206 79.5851 58.303C79.5493 58.2827 79.5161 58.255 79.4931 58.2221L77.6077 55.8554C77.5668 55.7998 77.5131 55.7569 77.4517 55.7266C77.4005 55.7064 77.3161 55.6912 77.2035 55.6912L76.4361 55.6887ZM76.4361 55.378H77.4619C77.7203 55.378 77.9531 55.3477 78.1603 55.2871C78.3675 55.2265 78.544 55.133 78.6872 55.0219C78.8279 54.9032 78.9354 54.7668 79.0121 54.6076C79.0838 54.4435 79.1221 54.2591 79.1221 54.0545C79.1221 53.6453 78.9865 53.3397 78.7077 53.1351C78.4391 52.9305 78.0349 52.8345 77.5182 52.8345H76.4361V55.378ZM81.3503 52.5011C81.3861 52.5011 81.4168 52.5011 81.4372 52.5163C81.4628 52.5264 81.4884 52.5466 81.5089 52.5769L85.3256 57.626C85.3154 57.5452 85.3102 57.4669 85.3102 57.3861V52.4986H85.6889V58.3257H85.4816C85.4203 58.3257 85.3614 58.2954 85.3256 58.2449L81.4935 53.1831L81.5089 53.418V58.3257H81.1405V52.4986L81.3503 52.5011ZM90.9637 52.5011V52.8497H87.8633V55.2063H90.4419V55.5498H87.8633V57.9771H90.9637V58.3307H87.4335V52.5036H90.9637V52.5011ZM96.1977 52.5011V52.8598H94.1256V58.3282H93.706V52.8598H91.6237V52.5011H96.1977ZM101.654 56.6309C101.7 56.7066 101.731 56.79 101.764 56.8759C101.8 56.79 101.836 56.7066 101.879 56.6258L104.194 52.5769C104.215 52.5415 104.24 52.5213 104.261 52.5112L104.353 52.5011H104.647V58.3282H104.269V53.3599L104.284 53.1351L101.964 57.2093C101.923 57.28 101.872 57.3103 101.797 57.3103H101.731C101.664 57.3103 101.606 57.28 101.565 57.2093L99.183 53.13L99.1932 53.3599V58.3282H98.8249V52.5011H99.1139C99.1549 52.5011 99.1856 52.5011 99.206 52.5112C99.2316 52.5213 99.2572 52.5415 99.2725 52.5769L101.654 56.6309ZM110.828 58.3282H110.495C110.462 58.3282 110.429 58.3181 110.403 58.2979C110.375 58.2752 110.354 58.2474 110.342 58.2171L109.648 56.5248H106.755L106.067 58.2171C106.054 58.2474 106.036 58.2726 106.011 58.2929C105.983 58.3156 105.944 58.3307 105.908 58.3282H105.589L107.996 52.5011H108.42L110.828 58.3282ZM106.883 56.2116H109.523L108.321 53.2664C108.272 53.1528 108.231 53.0366 108.2 52.9179C108.167 53.0366 108.129 53.1553 108.085 53.2715L106.883 56.2116ZM112.309 55.6887V58.3257H111.884V52.4986H113.386C114.064 52.4986 114.575 52.6274 114.908 52.8876C115.246 53.1427 115.414 53.5266 115.414 54.0318C115.414 54.2515 115.373 54.4561 115.294 54.6405C115.217 54.8223 115.102 54.9865 114.956 55.1204C114.811 55.2644 114.637 55.3755 114.435 55.4639C114.227 55.5548 113.995 55.618 113.736 55.6432C113.803 55.6837 113.867 55.7342 113.918 55.8074L115.946 58.3282H115.573C115.535 58.3282 115.494 58.3206 115.458 58.303C115.422 58.2827 115.389 58.255 115.366 58.2221L113.48 55.8554C113.439 55.7998 113.386 55.7569 113.324 55.7266C113.273 55.7064 113.189 55.6912 113.076 55.6912H112.309V55.6887ZM112.309 55.378H113.335C113.593 55.378 113.826 55.3477 114.033 55.2871C114.24 55.2265 114.417 55.133 114.555 55.0219C114.701 54.9032 114.813 54.7668 114.887 54.6076C114.959 54.4435 114.997 54.2591 114.997 54.0545C114.997 53.6453 114.862 53.3397 114.583 53.1351C114.314 52.9305 113.91 52.8345 113.393 52.8345H112.306L112.309 55.378ZM117.563 55.1886H117.911L118.052 55.1835C118.121 55.176 118.187 55.1507 118.244 55.1128L118.331 55.037L120.712 52.6198C120.745 52.5819 120.786 52.5516 120.832 52.5289C120.876 52.5112 120.925 52.5011 120.973 52.5036H121.321L118.748 55.1153C118.696 55.1709 118.645 55.2164 118.607 55.2442C118.566 55.2745 118.52 55.2997 118.471 55.3199C118.528 55.3351 118.581 55.3629 118.627 55.3957C118.673 55.4311 118.719 55.4715 118.768 55.5296L121.48 58.3307H121.132C121.06 58.3307 121.012 58.3206 120.976 58.3004L120.884 58.2196L118.395 55.6988C118.366 55.6736 118.336 55.6458 118.308 55.623C118.254 55.5725 118.185 55.5422 118.111 55.5321L117.944 55.522H117.566V58.3333H117.141V52.496H117.566L117.563 55.1886ZM126.033 52.5011V52.8497H122.938V55.2063H125.516V55.5498H122.938V57.9771H126.033V58.3307H122.508V52.5036H126.033V52.5011ZM131.272 52.5011V52.8598H129.2V58.3282H128.775V52.8598H126.693V52.5011H131.272ZM132.876 58.3282H132.446V52.5011H132.871L132.876 58.3282ZM134.989 52.5011C135.025 52.5011 135.056 52.5011 135.081 52.5163C135.102 52.5264 135.122 52.5466 135.148 52.5769L138.965 57.626C138.954 57.5452 138.949 57.4669 138.949 57.3861V52.4986H139.328V58.3257H139.121C139.059 58.3257 139 58.2954 138.965 58.2449L135.132 53.1831L135.148 53.418V58.3257H134.779V52.4986L134.989 52.5011ZM143.602 58.0504C143.81 58.0504 143.991 58.0403 144.158 58.0201C144.608 57.9695 145.04 57.8155 145.421 57.5755V56.007H144.288C144.26 56.0095 144.232 55.9994 144.211 55.9817C144.191 55.964 144.181 55.9413 144.181 55.916V55.6862H145.81V57.7574C145.511 57.9594 145.186 58.116 144.843 58.2272C144.434 58.3509 144.007 58.409 143.579 58.3964C143.18 58.4015 142.784 58.3282 142.415 58.1817C141.715 57.9064 141.17 57.3431 140.924 56.6384C140.781 56.2444 140.712 55.8302 140.717 55.4109C140.717 54.9613 140.788 54.5521 140.924 54.1833C141.18 53.4761 141.735 52.9128 142.446 52.6451C143.04 52.443 143.674 52.3849 144.293 52.4758C144.641 52.5339 144.979 52.6552 145.283 52.8345C145.429 52.9204 145.562 53.0189 145.692 53.13L145.577 53.3144C145.552 53.3548 145.521 53.375 145.475 53.375C145.452 53.3725 145.429 53.3675 145.408 53.3548C145.344 53.3245 145.283 53.2866 145.227 53.2412C144.766 52.9355 144.219 52.7815 143.664 52.7966C143.28 52.7966 142.935 52.8572 142.628 52.976C142.014 53.2109 141.538 53.7034 141.333 54.3197C141.211 54.6708 141.152 55.037 141.157 55.4083C141.157 55.8226 141.213 56.1914 141.333 56.5172C141.454 56.843 141.622 57.1209 141.835 57.3457C142.052 57.5755 142.305 57.7498 142.612 57.866C142.909 57.9898 143.242 58.0504 143.602 58.0504Z" fill="#70777B"/>
</g>
<defs>
<clipPath id="clip0_735_16210">
<rect width="137.144" height="36.66" fill="white" transform="translate(10.4282 28.5132)"/>
</clipPath>
</defs>
</svg>
