<svg width="158" height="94" viewBox="0 0 158 94" fill="none" xmlns="http://www.w3.org/2000/svg">
<g clip-path="url(#clip0_735_16211)">
<path d="M59.1641 40.9304C58.7549 40.3922 58.2038 39.9782 57.5942 39.7132C56.9762 39.3737 56.2914 39.2412 55.5398 39.2412H48.9092V54.7009V54.7671H52.4667V49.7491H55.615C56.3666 49.7491 57.0514 49.6167 57.6693 49.3434C58.2873 49.0701 58.8301 48.6644 59.2393 48.1924C59.7153 47.6542 59.9909 47.1077 60.2665 46.4949C60.4669 45.8822 60.6089 45.2032 60.6089 44.5242C60.6089 43.9114 60.4752 43.2324 60.1997 42.6279C59.9825 42.0152 59.5733 41.4687 59.1641 40.9304ZM56.5586 46.0809C56.2831 46.4204 55.8739 46.6274 55.4647 46.6274H52.5251V42.3547H55.3311C55.5398 42.3547 55.7403 42.3547 55.949 42.4872C56.1494 42.6279 56.3582 42.6942 56.4918 42.8929C56.7006 43.0999 56.8342 43.2986 56.901 43.5719C56.9678 43.8452 57.0347 44.1847 57.0347 44.5242C57.043 45.2032 56.901 45.7414 56.5586 46.0809Z" fill="#70777B"/>
<path d="M72.3585 48.1841C72.7009 47.8446 72.9764 47.5051 73.1769 47.0994C73.3856 46.7599 73.5193 46.3541 73.6529 45.8822C73.7865 45.4764 73.8616 44.9961 73.8616 44.5242C73.8616 43.9114 73.728 43.2324 73.4524 42.6279C73.1769 42.0152 72.8345 41.4107 72.3585 40.9304C71.8825 40.3922 71.3313 39.9782 70.7217 39.7132C70.1037 39.3737 69.4189 39.2412 68.6673 39.2412H61.6191V54.7009V54.7671H65.3103V49.7491H67.6402L70.7885 54.7671H74.822L71.2645 49.0039C71.682 48.7969 72.0161 48.5236 72.3585 48.1841ZM69.6277 46.0146C69.3521 46.4204 68.9429 46.6274 68.5337 46.6274H65.2518L65.185 42.4209H68.4001C68.8093 42.4209 69.2185 42.5534 69.5609 42.9591C69.9033 43.2986 70.1121 43.8452 70.1121 44.4496C70.1037 45.1369 69.9701 45.6089 69.6277 46.0146Z" fill="#70777B"/>
<path d="M79.3401 39.2329H75.7158V54.6926H79.3401V39.2329Z" fill="#70777B"/>
<path d="M91.0311 48.3249L83.7825 39.2329H80.9766V54.6926H84.6009V45.8821L91.7827 54.6926H94.6554V39.2329H91.0311V48.3249Z" fill="#70777B"/>
<path d="M95.5488 42.3547H100.334V54.6926H103.958V42.3547H108.677V39.2329H95.5488V42.3547Z" fill="#70777B"/>
<path d="M109.57 54.7008H113.195V48.5899H118.94V45.6751H113.195V42.3547H120.168V39.2329H109.57V54.7008Z" fill="#70777B"/>
<path d="M131.049 47.0994C131.049 47.7121 131.049 48.2504 130.915 48.7969C130.848 49.3351 130.639 49.8154 130.364 50.2211C130.088 50.6269 129.746 50.9664 129.337 51.2396C128.927 51.5129 128.376 51.6453 127.767 51.6453C127.149 51.6453 126.673 51.5129 126.263 51.3059C125.854 51.0326 125.512 50.6931 125.236 50.2874C125.027 49.8816 124.827 49.4013 124.693 48.8631C124.56 48.3249 124.485 47.7784 124.485 47.1656V39.2329H120.86V47.1656C120.86 48.1841 120.994 49.1364 121.27 50.0803C121.545 51.0326 121.954 51.8441 122.497 52.5231C123.048 53.2021 123.725 53.8066 124.618 54.2206C125.503 54.6263 126.606 54.8333 127.833 54.8333C128.994 54.8333 130.088 54.6346 130.915 54.2206C131.733 53.8148 132.485 53.2683 133.036 52.5976C133.579 51.9186 133.996 51.1071 134.264 50.1549C134.539 49.2689 134.673 48.2586 134.673 47.1739V39.2329H131.049V47.0994Z" fill="#70777B"/>
<path d="M140.21 51.5791V39.2329H136.586V54.7008H147.734V51.5791H140.21Z" fill="#70777B"/>
<path d="M19.5971 39.1665L10.4277 54.7669H17.6513L23.2047 45.3106L19.5971 39.1665Z" fill="#70777B"/>
<path d="M26.9795 54.7668H28.7582L27.8647 53.2515L26.9795 54.7668Z" fill="#70777B"/>
<path d="M23.7304 46.2134L18.7031 54.7671H25.9267L27.3464 52.3575L23.7304 46.2134Z" fill="#70777B"/>
<path d="M27.8728 51.463L31.4804 45.3106L27.8728 39.1665L24.2568 45.3106L27.6139 51.0242L27.8728 51.463Z" fill="#70777B"/>
<path d="M28.3994 52.3575L29.8107 54.7671H37.0343L32.007 46.2134L28.3994 52.3575Z" fill="#70777B"/>
<path d="M32.5322 45.3106L38.0856 54.7669H45.3092L36.1482 39.1665L32.5322 45.3106Z" fill="#70777B"/>
</g>
<defs>
<clipPath id="clip0_735_16211">
<rect width="137.306" height="15.6667" fill="white" transform="translate(10.4277 39.1665)"/>
</clipPath>
</defs>
</svg>
